<svg width="512" height="512" viewBox="0 0 512 512" fill="none" xmlns="http://www.w3.org/2000/svg" role="img" aria-labelledby="title desc">
  <title id="title">AREX logo preview</title>
  <desc id="desc">A dark rounded-square mark with a blue shield and compliance signal accent.</desc>
  <defs>
    <linearGradient id="tile" x1="78" y1="36" x2="430" y2="478" gradientUnits="userSpaceOnUse">
      <stop stop-color="#0B1220"/>
      <stop offset="0.55" stop-color="#071024"/>
      <stop offset="1" stop-color="#020617"/>
    </linearGradient>
    <linearGradient id="border" x1="86" y1="64" x2="422" y2="448" gradientUnits="userSpaceOnUse">
      <stop stop-color="#60A5FA"/>
      <stop offset="0.52" stop-color="#2563EB"/>
      <stop offset="1" stop-color="#22D3EE"/>
    </linearGradient>
    <linearGradient id="shield" x1="168" y1="138" x2="346" y2="362" gradientUnits="userSpaceOnUse">
      <stop stop-color="#DBEAFE"/>
      <stop offset="0.56" stop-color="#93C5FD"/>
      <stop offset="1" stop-color="#38BDF8"/>
    </linearGradient>
    <filter id="glow" x="50" y="42" width="412" height="428" filterUnits="userSpaceOnUse" color-interpolation-filters="sRGB">
      <feFlood flood-opacity="0" result="BackgroundImageFix"/>
      <feColorMatrix in="SourceAlpha" type="matrix" values="0 0 0 0 0 0 0 0 0 0 0 0 0 0 0 0 0 0 127 0" result="hardAlpha"/>
      <feOffset dy="14"/>
      <feGaussianBlur stdDeviation="18"/>
      <feComposite in2="hardAlpha" operator="out"/>
      <feColorMatrix type="matrix" values="0 0 0 0 0.0235294 0 0 0 0 0.27451 0 0 0 0 0.67451 0 0 0 0.34 0"/>
      <feBlend mode="normal" in2="BackgroundImageFix" result="effect1_dropShadow"/>
      <feBlend mode="normal" in="SourceGraphic" in2="effect1_dropShadow" result="shape"/>
    </filter>
    <filter id="softBlue" x="138" y="104" width="236" height="292" filterUnits="userSpaceOnUse" color-interpolation-filters="sRGB">
      <feGaussianBlur stdDeviation="10"/>
    </filter>
  </defs>

  <rect width="512" height="512" fill="#020617"/>
  <g filter="url(#glow)">
    <rect x="72" y="52" width="368" height="408" rx="84" fill="url(#tile)"/>
    <rect x="81" y="61" width="350" height="390" rx="75" stroke="url(#border)" stroke-width="18" stroke-opacity="0.55"/>
    <rect x="99" y="79" width="314" height="354" rx="60" stroke="#1E40AF" stroke-width="2" stroke-opacity="0.8"/>
  </g>

  <path d="M256 116C295.893 144.186 331.029 151.673 365 154.667V243.707C365 309.52 322.427 350.347 256 384C189.573 350.347 147 309.52 147 243.707V154.667C180.971 151.673 216.107 144.186 256 116Z" fill="#082F49" fill-opacity="0.18" filter="url(#softBlue)"/>
  <path d="M256 126C294.191 152.471 326.941 159.607 358 162.538V242.145C358 302.31 319.512 339.603 256 372C192.488 339.603 154 302.31 154 242.145V162.538C185.059 159.607 217.809 152.471 256 126Z" stroke="url(#shield)" stroke-width="24" stroke-linejoin="round"/>
  <path d="M256 160V311" stroke="#BFDBFE" stroke-width="18" stroke-linecap="round"/>
  <path d="M221 204H256" stroke="#60A5FA" stroke-width="16" stroke-linecap="round"/>
  <path d="M256 257H291" stroke="#60A5FA" stroke-width="16" stroke-linecap="round"/>
  <circle cx="256" cy="160" r="15" fill="#E0F2FE"/>
  <circle cx="256" cy="311" r="15" fill="#E0F2FE"/>
  <path d="M214 245L244 275L303 209" stroke="#34D399" stroke-width="19" stroke-linecap="round" stroke-linejoin="round"/>
  <path d="M184 369C203.978 384.465 227.936 398.55 256 412C284.064 398.55 308.022 384.465 328 369" stroke="#38BDF8" stroke-width="10" stroke-linecap="round" stroke-opacity="0.55"/>
</svg>
